<?xml version="1.0" encoding="utf-8"?>
<!-- Generator: Adobe Illustrator 16.0.0, SVG Export Plug-In . SVG Version: 6.00 Build 0)  -->
<!DOCTYPE svg PUBLIC "-//W3C//DTD SVG 1.1//EN" "http://www.w3.org/Graphics/SVG/1.1/DTD/svg11.dtd">
<svg version="1.1" id="Calque_1" xmlns="http://www.w3.org/2000/svg" xmlns:xlink="http://www.w3.org/1999/xlink" x="0px" y="0px"
	 width="496.066px" height="347.246px" viewBox="49.607 172.912 496.066 347.246"
	 enable-background="new 49.607 172.912 496.066 347.246" xml:space="preserve">
<title>rounded</title>
<path d="M272.837,445.748h-24.804V247.322h24.804V445.748z M471.263,247.322H446.46v198.426h24.803V247.322z M223.23,247.322
	h-49.606v198.426h49.606V247.322z M372.05,247.322h-74.41v198.426h74.41V247.322z M148.82,247.322h-24.803v198.426h24.803V247.322z
	 M421.656,247.322h-24.803v198.426h24.803V247.322z M198.427,507.757c0.004-6.846-5.542-12.398-12.388-12.402
	c-0.005,0-0.01,0-0.015,0h-49.606c-34.229-0.039-61.968-27.779-62.008-62.008v-24.804c0-6.849-5.553-12.402-12.402-12.402
	c-6.849,0-12.401,5.553-12.401,12.402v24.804c0.058,47.92,38.891,86.754,86.812,86.811h49.606
	c6.846,0.004,12.398-5.541,12.402-12.387C198.427,507.767,198.427,507.761,198.427,507.757z M545.673,433.347v-24.804
	c0-6.849-5.552-12.402-12.401-12.402s-12.401,5.553-12.401,12.402v24.804c-0.04,34.229-27.779,61.969-62.009,62.008h-49.606
	c-6.85,0-12.401,5.553-12.401,12.402s5.552,12.4,12.401,12.4h49.606C506.782,520.101,545.615,481.267,545.673,433.347z
	 M545.673,284.527v-24.804c-0.058-47.92-38.891-86.753-86.812-86.812h-49.606c-6.85,0-12.401,5.552-12.401,12.402
	c0,6.849,5.552,12.401,12.401,12.401h49.606c34.229,0.04,61.969,27.779,62.009,62.008v24.804c0,6.849,5.552,12.401,12.401,12.401
	S545.673,291.376,545.673,284.527z M74.41,284.527v-24.804c0.04-34.229,27.778-61.968,62.008-62.008h49.606
	c6.85,0,12.402-5.552,12.402-12.401c0-6.85-5.553-12.402-12.402-12.402h-49.606c-47.921,0.058-86.754,38.891-86.812,86.812v24.804
	c0,6.849,5.553,12.401,12.401,12.401C68.858,296.928,74.41,291.376,74.41,284.527z"/>
</svg>
